<svg xmlns="http://www.w3.org/2000/svg" direction="ltr" width="354" height="184" viewBox="-32 -32 354 184" stroke-linecap="round" stroke-linejoin="round" style="background-color: rgb(249, 250, 251);" encoding="UTF-8&quot;"><defs/><g transform="matrix(1, 0, 0, 1, 0, 0)" opacity="1"><g><rect width="120" height="120" rx="4" fill="white" stroke="black" stroke-width="2"/><text x="5" y="28" style="font-family: sans-serif; font-size: 10px; fill: #504758;" dominant-baseline="middle">Service Account</text><clipPath id="clip-round-corners-6y3dewhwf"><rect x="0" y="0" width="64" height="64" rx="4" ry="4"/></clipPath><svg width="58" height="58" viewBox="0 0 24 24" version="1.1" xmlns="http://www.w3.org/2000/svg" xmlns:xlink="http://www.w3.org/1999/xlink" x="31" y="48" clip-path="url(#clip-round-corners-6y3dewhwf)">
    <g stroke="none" stroke-width="1" fill="none" fill-rule="evenodd">
        <path d="M22,2 L22,22 L2,22 L2,2 L22,2 Z M12,6.61538462 C10.2131185,6.61538462 8.69051386,7.74688823 8.10959985,9.33248166 L8.10959985,9.33248166 L7.94899666,9.33277592 C5.93795979,9.33277592 4.30769231,10.9630434 4.30769231,12.9740803 C4.30769231,14.9851171 5.93795979,16.6153846 7.94899666,16.6153846 L7.94899666,16.6153846 L16.0510033,16.6153846 C18.0620402,16.6153846 19.6923077,14.9851171 19.6923077,12.9740803 C19.6923077,10.9630434 18.0620402,9.33277592 16.0510033,9.33277592 L16.0510033,9.33277592 L15.8904002,9.33248166 C15.3094861,7.74688823 13.7868815,6.61538462 12,6.61538462 Z" fill="#4285F4"/>
    </g>
</svg><text x="5" y="14" style="font-family: sans-serif; font-size: 14px; fill: black;" dominant-baseline="middle">terraform</text></g></g><g transform="matrix(1, 0, 0, 1, 170, 0)" opacity="1"><g><rect width="120" height="120" rx="4" fill="white" stroke="black" stroke-width="2"/><text x="5" y="28" style="font-family: sans-serif; font-size: 10px; fill: #504758;" dominant-baseline="middle">Storage Bucket</text><clipPath id="clip-round-corners-rforyxqid"><rect x="0" y="0" width="64" height="64" rx="4" ry="4"/></clipPath><svg xmlns="http://www.w3.org/2000/svg" width="58" height="58" viewBox="0 0 24 24" x="31" y="48" clip-path="url(#clip-round-corners-rforyxqid)"><defs><style>.cls-1{fill:#aecbfa;}.cls-2{fill:#669df6;}.cls-3{fill:#4285f4;}.cls-4{fill:#fff;}</style></defs><title>Icon_24px_CloudStorage_Color</title><g data-name="Product Icons"><rect class="cls-1" x="2" y="4" width="20" height="7"/><rect class="cls-2" x="20" y="4" width="2" height="7"/><polygon class="cls-3" points="22 4 20 4 20 11 22 4"/><rect class="cls-2" x="2" y="4" width="2" height="7"/><rect class="cls-4" x="6" y="7" width="6" height="1"/><rect class="cls-4" x="15" y="6" width="3" height="3" rx="1.5"/><rect class="cls-1" x="2" y="13" width="20" height="7"/><rect class="cls-2" x="20" y="13" width="2" height="7"/><polygon class="cls-3" points="22 13 20 13 20 20 22 13"/><rect class="cls-2" x="2" y="13" width="2" height="7"/><rect class="cls-4" x="6" y="16" width="6" height="1"/><rect class="cls-4" x="15" y="15" width="3" height="3" rx="1.5"/></g></svg><text x="5" y="14" style="font-family: sans-serif; font-size: 14px; fill: black;" dominant-baseline="middle">tfstate_bucket</text></g></g></svg>